<!--?xml version="1.0" encoding="UTF-8"?-->
<!--Generator: Apple Native CoreSVG 175.5-->

<svg version="1.1" xmlns="http://www.w3.org/2000/svg" xmlns:xlink="http://www.w3.org/1999/xlink" width="144" height="144">
 <g>
  
  <path d="M74.0378 118.0758Q83.0615 118.0758 91.0269 114.6216Q98.9927 111.1679 105.0801 105.0801Q111.1679 98.9927 114.6216 91.0269Q118.0758 83.0615 118.0758 74.0378Q118.0758 65.0144 114.6216 57.0487Q111.1679 49.0831 105.0801 42.9955Q98.9927 36.9079 91.0052 33.4539Q83.0181 30 73.9946 30Q64.9712 30 57.0056 33.4539Q49.0399 36.9079 42.9739 42.9955Q36.9079 49.0831 33.4539 57.0487Q30 65.0144 30 74.0378Q30 83.0615 33.4539 91.0269Q36.9079 98.9927 42.9955 105.0801Q49.0831 111.1679 57.0487 114.6216Q65.0144 118.0758 74.0378 118.0758Z" fill="#007aff"></path>
  <path d="M59.4017 94.8909Q57.8906 94.8909 56.984 94.0275Q56.0773 93.164 56.0773 91.8258Q56.0773 91.3076 56.1637 90.7678Q56.25 90.228 56.5522 89.4941L69.0296 55.9046Q70.368 52.3643 73.9946 52.3643Q77.6643 52.3643 79.0029 55.9046L91.5234 89.4941Q91.7824 90.228 91.8687 90.7678Q91.9553 91.3076 91.9553 91.8258Q91.9553 93.164 91.0485 94.0275Q90.1418 94.8909 88.674 94.8909Q87.4648 94.8909 86.6014 94.2432Q85.738 93.596 85.2198 92.0415L81.9385 82.5862H66.0937L62.8557 92.0415Q62.3376 93.6388 61.4741 94.2649Q60.6106 94.8909 59.4017 94.8909ZM67.8639 77.1894H80.1688L74.2539 60.0062H73.7788Z" fill="#ffffff"></path>
 </g>
</svg>
