<svg xmlns="http://www.w3.org/2000/svg" width="48" height="48" viewBox="0 0 48 48"><g id="a" fill="none" fill-rule="evenodd" stroke="none" stroke-width="1"><path id="Path" fill="#007AFF" fill-rule="nonzero" d="M23.7507236,47.5015551 C26.9952,47.5015551 30.0494202,46.8805753 32.9133843,45.6386157 C35.7774921,44.396836 38.3039101,42.6815101 40.4926382,40.4926382 C42.6815101,38.3039101 44.396836,35.7774921 45.6386157,32.9133843 C46.8805753,30.0494202 47.5015551,26.9952 47.5015551,23.7507236 C47.5015551,20.5063551 46.8805753,17.4521348 45.6386157,14.5880629 C44.396836,11.724027 42.6815101,9.19760899 40.4926382,7.00880899 C38.3039101,4.82000899 35.773591,3.10466517 32.9016809,1.86277753 C30.0299146,0.620925843 26.9718292,-3.55271368e-15 23.7274247,-3.55271368e-15 C20.4830562,-3.55271368e-15 17.4288539,0.620925843 14.564818,1.86277753 C11.7007461,3.10466517 9.17819326,4.82000899 6.99715955,7.00880899 C4.81612584,9.19760899 3.10466517,11.724027 1.86277753,14.5880629 C0.620925843,17.4521348 -3.55271368e-15,20.5063551 -3.55271368e-15,23.7507236 C-3.55271368e-15,26.9952 0.620925843,30.0494202 1.86277753,32.9133843 C3.10466517,35.7774921 4.82000899,38.3039101 7.00880899,40.4926382 C9.19760899,42.6815101 11.724027,44.396836 14.5880629,45.6386157 C17.4521348,46.8805753 20.5063551,47.5015551 23.7507236,47.5015551 Z"/><path id="Shape" fill="#FFF" fill-rule="nonzero" d="M30.3544922,32.1045032 L29.1240234,28.8701282 L18.6474609,28.8701282 L17.4169922,32.1748157 C16.9365234,33.4638782 16.5263672,34.3339953 16.1865234,34.7851672 C15.8466797,35.2363391 15.2900391,35.461925 14.5166016,35.461925 C13.8603516,35.461925 13.2802734,35.2216907 12.7763672,34.7412219 C12.2724609,34.2607532 12.0205078,33.7158313 12.0205078,33.1064563 C12.0205078,32.7548938 12.0791016,32.3916125 12.1962891,32.0166125 C12.3134766,31.6416125 12.5068359,31.1201282 12.7763672,30.4521594 L19.3681641,13.7177844 C19.5556641,13.2373157 19.78125,12.6601672 20.0449219,11.9863391 C20.3085938,11.312511 20.5898438,10.7529407 20.8886719,10.3076282 C21.1875,9.86231566 21.5800781,9.5019641 22.0664062,9.22657347 C22.5527344,8.95118285 23.1533203,8.81348754 23.8681641,8.81348754 C24.5947266,8.81348754 25.2011719,8.95118285 25.6875,9.22657347 C26.1738281,9.5019641 26.5664062,9.85645629 26.8652344,10.29005 C27.1640625,10.7236438 27.4160156,11.1894641 27.6210938,11.687511 C27.8261719,12.1855578 28.0869141,12.8505969 28.4033203,13.6826282 L35.1357422,30.3115344 C35.6630859,31.5771594 35.9267578,32.4970813 35.9267578,33.0713 C35.9267578,33.6689563 35.6777344,34.2168078 35.1796875,34.7148547 C34.6816406,35.2129016 34.0810547,35.461925 33.3779297,35.461925 C32.9677734,35.461925 32.6162109,35.3886828 32.3232422,35.2421985 C32.0302734,35.0957141 31.7841797,34.8964953 31.5849609,34.6445422 C31.3857422,34.3925891 31.171875,34.0058703 30.9433594,33.484386 C30.7148438,32.9629016 30.5185547,32.5029407 30.3544922,32.1045032 Z M20.0185547,24.9502063 L27.7177734,24.9502063 L23.8330078,14.3154407 L20.0185547,24.9502063 Z"/></g></svg>