<svg xmlns="http://www.w3.org/2000/svg" width="48" height="48" viewBox="0 0 48 48"><g id="b" fill="none" fill-rule="evenodd" stroke="none" stroke-width="1"><path id="Path" fill="#FF7A00" fill-rule="nonzero" d="M23.7507236,47.5015551 C26.9952,47.5015551 30.0494202,46.8805753 32.9133843,45.6386157 C35.7774921,44.396836 38.3039101,42.6815101 40.4926382,40.4926382 C42.6815101,38.3039101 44.396836,35.7774921 45.6386157,32.9133843 C46.8805753,30.0494202 47.5015551,26.9952 47.5015551,23.7507236 C47.5015551,20.5063551 46.8805753,17.4521348 45.6386157,14.5880629 C44.396836,11.724027 42.6815101,9.19760899 40.4926382,7.00880899 C38.3039101,4.82000899 35.773591,3.10466517 32.9016809,1.86277753 C30.0299146,0.620925843 26.9718292,-3.55271368e-15 23.7274247,-3.55271368e-15 C20.4830562,-3.55271368e-15 17.4288539,0.620925843 14.564818,1.86277753 C11.7007461,3.10466517 9.17819326,4.82000899 6.99715955,7.00880899 C4.81612584,9.19760899 3.10466517,11.724027 1.86277753,14.5880629 C0.620925843,17.4521348 -3.55271368e-15,20.5063551 -3.55271368e-15,23.7507236 C-3.55271368e-15,26.9952 0.620925843,30.0494202 1.86277753,32.9133843 C3.10466517,35.7774921 4.82000899,38.3039101 7.00880899,40.4926382 C9.19760899,42.6815101 11.724027,44.396836 14.5880629,45.6386157 C17.4521348,46.8805753 20.5063551,47.5015551 23.7507236,47.5015551 Z"/><path id="Shape" fill="#FFF" fill-rule="nonzero" d="M25.0390625,36.7695312 L17.1640625,36.7695312 C16.0273438,36.7695312 15.2158203,36.5146484 14.7294922,36.0048828 C14.2431641,35.4951172 14,34.6835938 14,33.5703125 L14,14.1992188 C14,13.0625 14.2490234,12.2451172 14.7470703,11.7470703 C15.2451172,11.2490234 16.0507812,11 17.1640625,11 L25.5136719,11 C26.7441406,11 27.8105469,11.0761719 28.7128906,11.2285156 C29.6152344,11.3808594 30.4238281,11.6738281 31.1386719,12.1074219 C31.7480469,12.4707031 32.2871094,12.9306641 32.7558594,13.4873047 C33.2246094,14.0439453 33.5820312,14.6591797 33.828125,15.3330078 C34.0742188,16.0068359 34.1972656,16.71875 34.1972656,17.46875 C34.1972656,20.046875 32.9082031,21.9335938 30.3300781,23.1289062 C33.7167969,24.2070312 35.4101562,26.3046875 35.4101562,29.421875 C35.4101562,30.8632812 35.0410156,32.1611328 34.3027344,33.3154297 C33.5644531,34.4697266 32.5683594,35.3222656 31.3144531,35.8730469 C30.5292969,36.2011719 29.6269531,36.4326172 28.6074219,36.5673828 C27.5878906,36.7021484 26.3984375,36.7695312 25.0390625,36.7695312 Z M24.6523438,25.3261719 L19.2207031,25.3261719 L19.2207031,32.8496094 L24.828125,32.8496094 C28.3554688,32.8496094 30.1191406,31.578125 30.1191406,29.0351562 C30.1191406,27.734375 29.6621094,26.7910156 28.7480469,26.2050781 C27.8339844,25.6191406 26.46875,25.3261719 24.6523438,25.3261719 Z M19.2207031,14.9199219 L19.2207031,21.5820312 L24.0019531,21.5820312 C25.3027344,21.5820312 26.3076172,21.4589844 27.0166016,21.2128906 C27.7255859,20.9667969 28.2675781,20.4980469 28.6425781,19.8066406 C28.9355469,19.3144531 29.0820312,18.7636719 29.0820312,18.1542969 C29.0820312,16.8535156 28.6191406,15.9892578 27.6933594,15.5615234 C26.7675781,15.1337891 25.3554688,14.9199219 23.4570312,14.9199219 L19.2207031,14.9199219 Z"/></g></svg>