<svg xmlns="http://www.w3.org/2000/svg" width="48" height="48" viewBox="0 0 48 48"><g id="c" fill="none" fill-rule="evenodd" stroke="none" stroke-width="1"><path id="Path" fill="#7AFF80" fill-rule="nonzero" d="M23.7507236,47.5015551 C26.9952,47.5015551 30.0494202,46.8805753 32.9133843,45.6386157 C35.7774921,44.396836 38.3039101,42.6815101 40.4926382,40.4926382 C42.6815101,38.3039101 44.396836,35.7774921 45.6386157,32.9133843 C46.8805753,30.0494202 47.5015551,26.9952 47.5015551,23.7507236 C47.5015551,20.5063551 46.8805753,17.4521348 45.6386157,14.5880629 C44.396836,11.724027 42.6815101,9.19760899 40.4926382,7.00880899 C38.3039101,4.82000899 35.773591,3.10466517 32.9016809,1.86277753 C30.0299146,0.620925843 26.9718292,-3.55271368e-15 23.7274247,-3.55271368e-15 C20.4830562,-3.55271368e-15 17.4288539,0.620925843 14.564818,1.86277753 C11.7007461,3.10466517 9.17819326,4.82000899 6.99715955,7.00880899 C4.81612584,9.19760899 3.10466517,11.724027 1.86277753,14.5880629 C0.620925843,17.4521348 -3.55271368e-15,20.5063551 -3.55271368e-15,23.7507236 C-3.55271368e-15,26.9952 0.620925843,30.0494202 1.86277753,32.9133843 C3.10466517,35.7774921 4.82000899,38.3039101 7.00880899,40.4926382 C9.19760899,42.6815101 11.724027,44.396836 14.5880629,45.6386157 C17.4521348,46.8805753 20.5063551,47.5015551 23.7507236,47.5015551 Z"/><path fill="#000" fill-rule="nonzero" d="M34.9746094,28.0703125 C34.9746094,28.890625 34.7724609,29.7783203 34.3681641,30.7333984 C33.9638672,31.6884766 33.328125,32.6259766 32.4609375,33.5458984 C31.59375,34.4658203 30.4863281,35.2128906 29.1386719,35.7871094 C27.7910156,36.3613281 26.2207031,36.6484375 24.4277344,36.6484375 C23.0683594,36.6484375 21.8320312,36.5195312 20.71875,36.2617188 C19.6054688,36.0039062 18.5947266,35.6025391 17.6865234,35.0576172 C16.7783203,34.5126953 15.9433594,33.7949219 15.1816406,32.9042969 C14.5019531,32.0957031 13.921875,31.1904297 13.4414062,30.1884766 C12.9609375,29.1865234 12.6005859,28.1171875 12.3603516,26.9804688 C12.1201172,25.84375 12,24.6367188 12,23.359375 C12,21.2851562 12.3017578,19.4277344 12.9052734,17.7871094 C13.5087891,16.1464844 14.3730469,14.7431641 15.4980469,13.5771484 C16.6230469,12.4111328 17.9414062,11.5234375 19.453125,10.9140625 C20.9648438,10.3046875 22.5761719,10 24.2871094,10 C26.3730469,10 28.2304688,10.4160156 29.859375,11.2480469 C31.4882812,12.0800781 32.7363281,13.1083984 33.6035156,14.3330078 C34.4707031,15.5576172 34.9042969,16.7148438 34.9042969,17.8046875 C34.9042969,18.4023438 34.6933594,18.9296875 34.2714844,19.3867188 C33.8496094,19.84375 33.3398438,20.0722656 32.7421875,20.0722656 C32.0742188,20.0722656 31.5732422,19.9140625 31.2392578,19.5976562 C30.9052734,19.28125 30.5332031,18.7363281 30.1230469,17.9628906 C29.4433594,16.6855469 28.6435547,15.7304688 27.7236328,15.0976562 C26.8037109,14.4648438 25.6699219,14.1484375 24.3222656,14.1484375 C22.1777344,14.1484375 20.4697266,14.9628906 19.1982422,16.5917969 C17.9267578,18.2207031 17.2910156,20.5351562 17.2910156,23.5351562 C17.2910156,25.5390625 17.5722656,27.2060547 18.1347656,28.5361328 C18.6972656,29.8662109 19.4941406,30.859375 20.5253906,31.515625 C21.5566406,32.171875 22.7636719,32.5 24.1464844,32.5 C25.6464844,32.5 26.9150391,32.1279297 27.9521484,31.3837891 C28.9892578,30.6396484 29.7714844,29.546875 30.2988281,28.1054688 C30.5214844,27.4257812 30.796875,26.8720703 31.125,26.4443359 C31.453125,26.0166016 31.9804688,25.8027344 32.7070312,25.8027344 C33.328125,25.8027344 33.8613281,26.0195312 34.3066406,26.453125 C34.7519531,26.8867188 34.9746094,27.4257812 34.9746094,28.0703125 Z"/></g></svg>