<svg xmlns="http://www.w3.org/2000/svg" width="48" height="48" viewBox="0 0 48 48"><g id="caution" fill="none" fill-rule="evenodd" stroke="none" stroke-width="1"><path id="Triangle" fill="#F8E71C" stroke="red" stroke-width="3" d="M26.6597545,5.09786287 L45.7107663,41.612302 C46.4771707,43.0812438 45.9076516,44.8933501 44.4387097,45.6597545 C44.0102964,45.8832746 43.5342293,46 43.0510117,46 L4.94898829,46 C3.29213404,46 1.94898829,44.6568542 1.94898829,43 C1.94898829,42.5167824 2.06571374,42.0407153 2.28923375,41.612302 L21.3402455,5.09786287 C22.1066499,3.628921 23.9187562,3.05940189 25.387698,3.82580635 C25.9318589,4.10971635 26.3758445,4.55370202 26.6597545,5.09786287 Z"/><path id="Shape" fill="#000" fill-rule="nonzero" d="M22.5664062,29.8378906 L22.0039062,21.4179688 C21.8984375,19.7773438 21.8457031,18.5996094 21.8457031,17.8847656 C21.8457031,16.9121094 22.1005859,16.1533203 22.6103516,15.6083984 C23.1201172,15.0634766 23.7910156,14.7910156 24.6230469,14.7910156 C25.6308594,14.7910156 26.3046875,15.1396484 26.6445312,15.8369141 C26.984375,16.5341797 27.1542969,17.5390625 27.1542969,18.8515625 C27.1542969,19.625 27.1132812,20.4101562 27.03125,21.2070312 L26.2753906,29.8730469 C26.1933594,30.9042969 26.0175781,31.6953125 25.7480469,32.2460938 C25.4785156,32.796875 25.0332031,33.0722656 24.4121094,33.0722656 C23.7792969,33.0722656 23.3398438,32.8056641 23.09375,32.2724609 C22.8476562,31.7392578 22.671875,30.9277344 22.5664062,29.8378906 Z M24.5175781,41.4042969 C23.8027344,41.4042969 23.1787109,41.1728516 22.6455078,40.7099609 C22.1123047,40.2470703 21.8457031,39.5996094 21.8457031,38.7675781 C21.8457031,38.0410156 22.1005859,37.4228516 22.6103516,36.9130859 C23.1201172,36.4033203 23.7441406,36.1484375 24.4824219,36.1484375 C25.2207031,36.1484375 25.8505859,36.4033203 26.3720703,36.9130859 C26.8935547,37.4228516 27.1542969,38.0410156 27.1542969,38.7675781 C27.1542969,39.5878906 26.890625,40.2324219 26.3632812,40.7011719 C25.8359375,41.1699219 25.2207031,41.4042969 24.5175781,41.4042969 Z"/></g></svg>