<svg xmlns="http://www.w3.org/2000/svg" width="48" height="48" viewBox="0 0 48 48"><g id="eight" fill="none" fill-rule="evenodd" stroke="none" stroke-width="1"><path id="Path" fill="#FF028B" fill-rule="nonzero" d="M23.7507236,47.5015551 C26.9952,47.5015551 30.0494202,46.8805753 32.9133843,45.6386157 C35.7774921,44.396836 38.3039101,42.6815101 40.4926382,40.4926382 C42.6815101,38.3039101 44.396836,35.7774921 45.6386157,32.9133843 C46.8805753,30.0494202 47.5015551,26.9952 47.5015551,23.7507236 C47.5015551,20.5063551 46.8805753,17.4521348 45.6386157,14.5880629 C44.396836,11.724027 42.6815101,9.19760899 40.4926382,7.00880899 C38.3039101,4.82000899 35.773591,3.10466517 32.9016809,1.86277753 C30.0299146,0.620925843 26.9718292,-3.55271368e-15 23.7274247,-3.55271368e-15 C20.4830562,-3.55271368e-15 17.4288539,0.620925843 14.564818,1.86277753 C11.7007461,3.10466517 9.17819326,4.82000899 6.99715955,7.00880899 C4.81612584,9.19760899 3.10466517,11.724027 1.86277753,14.5880629 C0.620925843,17.4521348 -3.55271368e-15,20.5063551 -3.55271368e-15,23.7507236 C-3.55271368e-15,26.9952 0.620925843,30.0494202 1.86277753,32.9133843 C3.10466517,35.7774921 4.82000899,38.3039101 7.00880899,40.4926382 C9.19760899,42.6815101 11.724027,44.396836 14.5880629,45.6386157 C17.4521348,46.8805753 20.5063551,47.5015551 23.7507236,47.5015551 Z"/><path id="Shape" fill="#FFF" fill-rule="nonzero" d="M16.2119141,17.7695312 C16.2119141,16.5976562 16.53125,15.4931641 17.1699219,14.4560547 C17.8085938,13.4189453 18.7460938,12.5898438 19.9824219,11.96875 C21.21875,11.3476562 22.6630859,11.0371094 24.3154297,11.0371094 C25.7099609,11.0371094 26.9345703,11.21875 27.9892578,11.5820312 C29.0439453,11.9453125 29.9228516,12.4462891 30.6259766,13.0849609 C31.3291016,13.7236328 31.8505859,14.4443359 32.1904297,15.2470703 C32.5302734,16.0498047 32.7001953,16.9023438 32.7001953,17.8046875 C32.7001953,18.953125 32.4042969,19.9785156 31.8125,20.8808594 C31.2207031,21.7832031 30.3388672,22.5214844 29.1669922,23.0957031 C30.1630859,23.4824219 30.9892578,23.9892578 31.6455078,24.6162109 C32.3017578,25.2431641 32.796875,25.9697266 33.1308594,26.7958984 C33.4648438,27.6220703 33.6318359,28.5390625 33.6318359,29.546875 C33.6318359,31.0234375 33.2744141,32.3623047 32.5595703,33.5634766 C31.8447266,34.7646484 30.7958984,35.7050781 29.4130859,36.3847656 C28.0302734,37.0644531 26.4013672,37.4042969 24.5263672,37.4042969 C22.5810547,37.4042969 20.9169922,37.0644531 19.5341797,36.3847656 C18.1513672,35.7050781 17.1083984,34.7705078 16.4052734,33.5810547 C15.7021484,32.3916016 15.3505859,31.0585938 15.3505859,29.5820312 C15.3505859,26.4296875 16.8388672,24.2675781 19.8154297,23.0957031 C17.4130859,21.9707031 16.2119141,20.1953125 16.2119141,17.7695312 Z M28.8154297,29.40625 C28.8154297,28.4921875 28.6279297,27.6953125 28.2529297,27.015625 C27.8779297,26.3359375 27.3505859,25.8144531 26.6708984,25.4511719 C25.9912109,25.0878906 25.2294922,24.90625 24.3857422,24.90625 C23.1904297,24.90625 22.1884766,25.3046875 21.3798828,26.1015625 C20.5712891,26.8984375 20.1669922,28.0117188 20.1669922,29.4414062 C20.1669922,30.3554688 20.3574219,31.1611328 20.7382812,31.8583984 C21.1191406,32.5556641 21.6376953,33.0947266 22.2939453,33.4755859 C22.9501953,33.8564453 23.6826172,34.046875 24.4912109,34.046875 C25.3115234,34.046875 26.0498047,33.8535156 26.7060547,33.4667969 C27.3623047,33.0800781 27.8779297,32.5351562 28.2529297,31.8320312 C28.6279297,31.1289062 28.8154297,30.3203125 28.8154297,29.40625 Z M24.4208984,14.3945312 C23.3193359,14.3945312 22.4316406,14.7373047 21.7578125,15.4228516 C21.0839844,16.1083984 20.7470703,16.9902344 20.7470703,18.0683594 C20.7470703,19.0644531 21.0927734,19.8935547 21.7841797,20.5556641 C22.4755859,21.2177734 23.3662109,21.5488281 24.4560547,21.5488281 C25.0068359,21.5488281 25.5078125,21.4609375 25.9589844,21.2851562 C26.4101562,21.109375 26.796875,20.8662109 27.1191406,20.5556641 C27.4414062,20.2451172 27.6904297,19.8759766 27.8662109,19.4482422 C28.0419922,19.0205078 28.1298828,18.5488281 28.1298828,18.0332031 C28.1298828,17.3417969 27.9746094,16.7207031 27.6640625,16.1699219 C27.3535156,15.6191406 26.9169922,15.1855469 26.3544922,14.8691406 C25.7919922,14.5527344 25.1474609,14.3945312 24.4208984,14.3945312 Z"/></g></svg>