<svg xmlns="http://www.w3.org/2000/svg" width="144" height="144" viewBox="0 0 144 144"><g id="image" fill="none" fill-rule="evenodd" stroke="none" stroke-width="1"><rect id="Rectangle" width="144" height="144" x="0" y="0" fill="#000" fill-opacity=".01"/><g id="icon" transform="translate(12 27)"><rect width="114" height="84" x="3" y="3" stroke="#FFF" stroke-width="6" rx="12"/><path id="Path" fill="#FFF" fill-rule="nonzero" d="M60,26.25 C69.8550043,26.25 79.3793638,31.8473148 88.6428544,42.7476063 L93.4857124,38.5986859 L99.759657,60.885456 L78.6859482,51.2958108 L82.9525849,47.6304329 C75.2824099,38.5880676 67.8525616,34.0525903 60.7245216,33.7646497 L60,33.75 C52.652139,33.75 44.9794808,38.2802901 37.0499582,47.6274349 L41.3140518,51.2958108 L30.536343,56.199 L30.5111242,56.2356367 L20.240343,60.885456 L26.5142876,38.5986859 L31.3546268,42.7505703 C40.6189096,31.8483295 50.1441025,26.25 60,26.25 Z"/></g></g></svg>